# xmcd
#
# Track frame offsets:
#	150
#	10435
#	23057
#	31687
#	41057
#	53205
#	64982
#	76397
#	87060
#	95247
#
# Disc length: 1393 seconds
#
# Revision: 0
# Processed by: cddbd v1.5.2PL0 Copyright (c) Steve Scherf et al.
# Submitted via: EasyCDDAExtractor 15.3.0.1
#
DISCID=79056f0a
DTITLE=Los Teen Tops - Tesoros de Coleccion Cd 2
DYEAR=1900
DGENRE=
TTITLE0=Confidente de Secundaria
TTITLE1=Colina Azul
TTITLE2=Maybellene
TTITLE3=Deja el Sol Brillar
TTITLE4=Vueltas y Vueltas
TTITLE5=La Hiedra Venenosa
TTITLE6=Mucho Mucho Amor
TTITLE7=El Twist
TTITLE8=Me estas Fallando
TTITLE9=Leroy
EXTD=
EXTT0=
EXTT1=
EXTT2=
EXTT3=
EXTT4=
EXTT5=
EXTT6=
EXTT7=
EXTT8=
EXTT9=
PLAYORDER=
